<svg width="81" height="81" viewBox="0 0 81 81" fill="none" xmlns="http://www.w3.org/2000/svg">
<path fill-rule="evenodd" clip-rule="evenodd" d="M20.905 26.1372L14.6836 20.6067C13.6888 19.723 13.1185 18.4528 13.1185 17.1213V16.9685C13.1185 15.8209 13.5652 14.7425 14.3769 13.9307C15.0807 13.227 16.017 12.8396 17.0117 12.8396C18.0065 12.8396 18.9428 13.227 19.6465 13.9307L20.905 15.1892L22.1635 13.9307C23.5709 12.5243 26.0256 12.5243 27.4331 13.9307C28.2448 14.7425 28.6916 15.8209 28.6916 16.9685V17.1213C28.6916 18.4518 28.1212 19.723 27.1265 20.6067L20.905 26.1372ZM30.6383 17.1213V16.9685C30.6383 15.3012 29.9891 13.7342 28.8094 12.5545C27.7387 11.4829 26.3138 10.8931 24.7983 10.8931C23.3384 10.8931 21.9621 11.441 20.9051 12.4397C19.848 11.441 18.4718 10.8931 17.0118 10.8931C15.4963 10.8931 14.0714 11.4829 13.0007 12.5545C11.8211 13.7342 11.1719 15.3012 11.1719 16.9685V17.1213C11.1719 19.0076 11.9807 20.8083 13.3901 22.0609L20.9051 28.7418L28.4191 22.0619C29.8294 20.8093 30.6383 19.0086 30.6383 17.1214L30.6383 17.1213Z" fill="white"/>
<path fill-rule="evenodd" clip-rule="evenodd" d="M78.3871 43.1129C78.3871 43.8341 77.8005 44.4194 77.0807 44.4194H62.0983L55.7071 52.0869C55.4484 52.3953 54.871 52.1875 54.871 51.7851V44.4194H37.8871C37.1673 44.4194 36.5807 43.8341 36.5807 43.1129V36.5807H37.8871C40.048 36.5807 41.8065 34.8222 41.8065 32.6613V13.0645H77.0807C77.8005 13.0645 78.3871 13.6498 78.3871 14.371L78.3871 43.1129ZM47.0323 69.2419C47.0323 69.9631 46.4457 70.5484 45.7258 70.5484H28.7419V77.9142C28.7419 78.3178 28.1645 78.5269 27.9058 78.216L21.5147 70.5484H6.53226C5.8124 70.5484 5.22581 69.9631 5.22581 69.2419V43.1129C5.22581 42.3917 5.81241 41.8064 6.53226 41.8064H19.4204L20.6733 43.3089C21.2612 44.0144 22.1248 44.4194 23.0432 44.4194C24.5822 44.4194 25.8508 43.2827 26.0807 41.8064H33.9678V43.1129C33.9678 45.2738 35.7262 47.0322 37.8871 47.0322H47.0323L47.0323 69.2419ZM33.9677 39.1936H26.129V36.5807H33.9677V39.1936ZM3.91935 33.9679C3.19949 33.9679 2.6129 33.3826 2.6129 32.6615V3.91954C2.6129 3.19838 3.1995 2.61309 3.91935 2.61309H37.8871C38.6069 2.61309 39.1935 3.19838 39.1935 3.91954V32.6615C39.1935 33.3826 38.6069 33.9679 37.8871 33.9679H23.5161V41.3337C23.5161 41.7374 22.9387 41.9464 22.68 41.6355L16.2888 33.9679H3.91935ZM77.0807 10.4516H41.8064V3.91935C41.8064 1.75848 40.048 0 37.8871 0H3.91935C1.75848 0 0 1.75848 0 3.91935V32.6613C0 34.8222 1.75848 36.5807 3.91935 36.5807H15.066L17.2439 39.1936H6.53226C4.37139 39.1936 2.61291 40.952 2.61291 43.1129V69.2419C2.61291 71.4028 4.37139 73.1613 6.53226 73.1613H20.2918L25.8991 79.8895C26.487 80.595 27.3506 81 28.269 81C29.97 81 31.3548 79.6152 31.3548 77.9142V73.1613H45.7258C47.8867 73.1613 49.6452 71.4028 49.6452 69.2419V47.0323H52.2581V51.7851C52.2581 53.4861 53.6429 54.871 55.3439 54.871C56.2623 54.871 57.1259 54.466 57.7138 53.7605L63.3211 47.0323H77.0807C79.2415 47.0323 81 45.2738 81 43.1129V14.371C81 12.2101 79.2415 10.4516 77.0807 10.4516Z" fill="#00B54E"/>
<path fill-rule="evenodd" clip-rule="evenodd" d="M35.6286 55.6037C35.6286 56.6514 34.7766 57.5034 33.7289 57.5034C32.6812 57.5034 31.8291 56.6514 31.8291 55.6037C31.8291 54.556 32.6812 53.704 33.7289 53.704C34.7766 53.704 35.6286 54.556 35.6286 55.6037ZM24.2303 53.704C24.2303 52.6563 25.0823 51.8043 26.13 51.8043C27.1777 51.8043 28.0297 52.6563 28.0297 53.704C28.0297 54.7517 27.1777 55.6037 26.13 55.6037C25.0823 55.6037 24.2303 54.7517 24.2303 53.704ZM16.6314 55.6037C16.6314 54.556 17.4835 53.704 18.5312 53.704C19.5788 53.704 20.4309 54.556 20.4309 55.6037C20.4309 56.6514 19.5788 57.5034 18.5312 57.5034C17.4835 57.5034 16.6314 56.6514 16.6314 55.6037ZM29.9295 55.6035C29.9295 56.1667 30.0606 56.6967 30.2809 57.1774C29.8715 56.8145 29.4156 56.5049 28.9226 56.2589C29.5419 55.5826 29.9295 54.6906 29.9295 53.7037C29.9295 51.6083 28.2254 49.9043 26.13 49.9043C24.0347 49.9043 22.3306 51.6083 22.3306 53.7037C22.3306 54.6906 22.7182 55.5825 23.3375 56.2588C22.8445 56.5049 22.3885 56.8145 21.9792 57.1773C22.1995 56.6967 22.3306 56.1667 22.3306 55.6034C22.3306 53.5081 20.6266 51.804 18.5312 51.804C16.4358 51.804 14.7317 53.5081 14.7317 55.6034C14.7317 56.616 15.1354 57.5307 15.7832 58.2127C14.026 59.1844 12.832 61.0556 12.832 63.2023V65.102H14.7317V63.2023C14.7317 61.1069 16.4358 59.4029 18.5312 59.4029C19.1296 59.4029 19.7033 59.5454 20.2257 59.8066C20.0756 60.2406 19.9655 60.6947 19.9123 61.1687L19.4867 64.9966L21.3741 65.2065L21.7996 61.3786C22.0456 59.1692 23.9074 57.5032 26.13 57.5032C28.3527 57.5032 30.2144 59.1692 30.4604 61.3786L30.886 65.2065L32.7733 64.9966L32.3478 61.1687C32.2956 60.6947 32.1844 60.2406 32.0344 59.8066C32.5568 59.5453 33.1305 59.4029 33.7289 59.4029C35.8243 59.4029 37.5283 61.1069 37.5283 63.2023V65.102H39.428V63.2023C39.428 61.0556 38.2341 59.1844 36.4768 58.2127C37.1246 57.5307 37.5283 56.616 37.5283 55.6034C37.5283 53.508 35.8243 51.804 33.7289 51.804C31.6335 51.804 29.9295 53.508 29.9295 55.6034V55.6035Z" fill="#3A3A3A"/>
<path fill-rule="evenodd" clip-rule="evenodd" d="M66.8213 34.0966C66.8213 35.081 66.0208 35.8815 65.0364 35.8815H61.1142C59.3427 35.8815 57.6248 35.3987 56.1121 34.4911V27.3266L56.9117 26.527C58.0835 25.3552 58.9161 23.8854 59.3177 22.2781C59.4168 21.881 59.7729 21.6025 60.1834 21.6025C60.6858 21.6025 61.1606 21.822 61.4854 22.2067C61.8103 22.5904 61.9495 23.0947 61.8665 23.5909L61.306 26.9571H65.0364C66.0208 26.9571 66.8213 27.7576 66.8213 28.742V34.0966ZM50.7574 35.8815V26.9572H54.3272L54.3281 35.8815H50.7574ZM65.0365 25.1725H63.4123L63.6273 23.8838C63.796 22.8691 63.5122 21.8375 62.8474 21.053C62.1825 20.2677 61.2115 19.8179 60.1834 19.8179C58.9528 19.8179 57.8845 20.6523 57.5856 21.8455C57.2625 23.1395 56.5932 24.3211 55.6499 25.2653L55.3866 25.5286C55.0894 25.3081 54.7253 25.1725 54.3273 25.1725H50.7575C49.7732 25.1725 48.9727 25.973 48.9727 26.9574V35.8817C48.9727 36.8661 49.7732 37.6666 50.7575 37.6666H54.3273C55.1064 37.6666 55.7623 37.1624 56.0059 36.4654C57.5891 37.2507 59.3285 37.6666 61.1142 37.6666H65.0365C67.0052 37.6666 68.6062 36.0656 68.6062 34.0968V28.7422C68.6062 26.7735 67.0052 25.1725 65.0365 25.1725L65.0365 25.1725Z" fill="white"/>
</svg>
