<svg width="153" height="153" viewBox="0 0 153 153" fill="none" xmlns="http://www.w3.org/2000/svg">
<circle cx="76.5" cy="76.5" r="76.5" fill="#EEEEEE"/>
<path d="M119 116L119 37C119 33.6863 116.314 31 113 31L42 31C38.6863 31 36 33.6863 36 37L36 53.9841C36 56.772 34.0433 59.1385 31.5148 60.3127C25.9095 62.9158 20 68.1701 20 76.5C20 84.6625 25.6745 89.4375 31.1766 91.7234C33.8678 92.8414 36 95.2722 36 98.1864L36 116C36 119.314 38.6863 122 42 122L56.6735 122C60.112 122 62.8062 119.079 63.4894 115.709C64.7085 109.695 68.3329 103.134 77 103.134C85.6671 103.134 89.2915 109.695 90.5106 115.709C91.1938 119.079 93.888 122 97.3265 122L113 122C116.314 122 119 119.314 119 116Z" fill="#FC5D3D" stroke="black" stroke-width="5"/>
<path d="M44.7838 40.0001C44.7838 45.0001 44.7838 41.0948 44.7838 45M44.7842 112L44.7842 95.1198C44.7842 90.4681 42.0997 86.2341 37.8923 84.25L34.5115 82.6557C32.368 81.645 31.0004 79.488 31.0004 77.1182V77.1182C31.0004 74.3846 32.8125 71.9823 35.4408 71.2313L40.0127 69.9251C40.9912 69.6455 41.8914 69.1428 42.6427 68.4565V68.4565C44.007 67.2101 44.7842 65.4473 44.7842 63.5994L44.7842 56.5" stroke="white" stroke-width="5" stroke-linecap="round" stroke-linejoin="round"/>
<path d="M45.5 112L55 112" stroke="white" stroke-width="5" stroke-linecap="round" stroke-linejoin="round"/>
</svg>
