<svg width="97" height="98" viewBox="0 0 97 98" fill="none" xmlns="http://www.w3.org/2000/svg">
<path d="M11.0729 36.9414L12.8426 40.0805C14.4051 42.8559 16.9654 44.9039 19.9964 45.7844L30.8965 48.9426C34.1346 49.8805 36.356 52.8855 36.356 56.3117V63.9488C36.356 66.0543 37.5232 67.9684 39.3681 68.9062C41.2131 69.8441 42.3803 71.7582 42.3803 73.8637V81.3285C42.3803 84.3145 45.1853 86.4773 48.0092 85.6543C51.0401 84.7738 53.3934 82.3047 54.1652 79.1848L54.6923 77.041C55.483 73.8063 57.5539 71.0309 60.3966 69.3848L61.9215 68.5043C64.7453 66.8773 66.4773 63.8148 66.4773 60.5227V58.934C66.4773 56.5031 65.5172 54.168 63.8229 52.4453L63.0887 51.6988C61.3943 49.9762 59.0976 49 56.7067 49H48.5928C46.5031 49 44.4323 48.4449 42.6062 47.3922L36.1113 43.6215C35.3018 43.143 34.6805 42.3773 34.3793 41.4777C33.7769 39.6402 34.5864 37.6496 36.2995 36.7883L37.4103 36.2141C38.6528 35.5824 40.1023 35.4676 41.4201 35.927L45.7877 37.4008C47.3315 37.9176 49.0258 37.3242 49.9106 35.9652C50.7954 34.6254 50.7013 32.8453 49.6847 31.6012L47.1244 28.4813C45.2418 26.1844 45.2606 22.8348 47.1808 20.5762L50.1365 17.0734C51.7932 15.102 52.0567 12.2883 50.7954 10.0488L50.3436 9.24492C49.6847 9.20664 49.0446 9.1875 48.3857 9.1875C30.9153 9.1875 16.0994 20.8441 11.0729 36.9414ZM87.5622 49C87.5622 41.9562 85.7549 35.3336 82.5922 29.5723L77.7728 31.5438C74.8171 32.7496 73.2923 36.0992 74.29 39.1617L77.4716 48.866C78.1305 50.8566 79.7307 52.3688 81.7262 52.8664L87.2045 54.2637C87.4304 52.541 87.5434 50.7801 87.5434 49H87.5622ZM0.210449 49C0.210449 36.0044 5.28803 23.541 14.3262 14.3518C23.3643 5.16249 35.6227 0 48.4045 0C61.1864 0 73.4447 5.16249 82.4829 14.3518C91.521 23.541 96.5986 36.0044 96.5986 49C96.5986 61.9956 91.521 74.459 82.4829 83.6482C73.4447 92.8375 61.1864 98 48.4045 98C35.6227 98 23.3643 92.8375 14.3262 83.6482C5.28803 74.459 0.210449 61.9956 0.210449 49Z" fill="white"/>
</svg>
