<svg width="153" height="153" viewBox="0 0 153 153" fill="none" xmlns="http://www.w3.org/2000/svg">
<circle cx="76.5" cy="76.5" r="76.5" fill="#EEEEEE"/>
<line x1="114" y1="106.5" x2="113" y2="106.5" stroke="white"/>
<path d="M117 31H38C34.6863 31 32 33.6863 32 37V108C32 111.314 34.6863 114 38 114H54.9841C57.772 114 60.1385 115.957 61.3127 118.485C63.9158 124.09 69.1701 130 77.5 130C85.6625 130 90.4375 124.326 92.7234 118.823C93.8414 116.132 96.2722 114 99.1864 114H117C120.314 114 123 111.314 123 108V93.3265C123 89.888 120.079 87.1938 116.709 86.5106C110.695 85.2915 104.134 81.6671 104.134 73C104.134 64.3329 110.695 60.7085 116.709 59.4894C120.079 58.8062 123 56.112 123 52.6735V37C123 33.6863 120.314 31 117 31Z" fill="#F2BF22" stroke="black" stroke-width="5"/>
<path d="M41.0001 105.216C46.0001 105.216 42.0948 105.216 46 105.216M113 105.216H96.1198C91.4681 105.216 87.2341 107.9 85.25 112.108L83.6557 115.489C82.645 117.632 80.488 119 78.1182 119V119C75.3846 119 72.9823 117.188 72.2313 114.559L70.9251 109.987C70.6455 109.009 70.1428 108.109 69.4565 107.357V107.357C68.2101 105.993 66.4473 105.216 64.5994 105.216H57.5" stroke="white" stroke-width="5" stroke-linecap="round" stroke-linejoin="round"/>
<path d="M113 104.5V95" stroke="white" stroke-width="5" stroke-linecap="round" stroke-linejoin="round"/>
</svg>
