<svg width="17" height="18" viewBox="0 0 17 18" fill="none" xmlns="http://www.w3.org/2000/svg">
<path d="M5.47495 0.885555C5.2193 0.249061 4.54531 -0.0897181 3.9012 0.0916485L0.979449 0.912931C0.40174 1.07719 0 1.61787 0 2.23383C0 10.6999 6.66025 17.5644 14.8743 17.5644C15.472 17.5644 15.9966 17.1504 16.1559 16.5549L16.9528 13.5436C17.1287 12.8797 16.8 12.185 16.1825 11.9215L12.9951 10.5527C12.4539 10.32 11.8264 10.4809 11.4579 10.9497L10.1165 12.6367C7.77915 11.4972 5.88665 9.54667 4.78104 7.13757L6.41788 5.7585C6.87274 5.37524 7.02879 4.7319 6.80302 4.17411L5.47495 0.888977V0.885555Z" fill="#FF5C00"/>
</svg>
