<svg width="16" height="17" viewBox="0 0 16 17" fill="none" xmlns="http://www.w3.org/2000/svg">
<g clip-path="url(#clip0_63_4418)">
<path d="M8 8.5C9.21242 8.5 10.3752 8.05223 11.2325 7.2552C12.0898 6.45817 12.5714 5.37717 12.5714 4.25C12.5714 3.12283 12.0898 2.04183 11.2325 1.2448C10.3752 0.447767 9.21242 0 8 0C6.78758 0 5.62482 0.447767 4.76751 1.2448C3.9102 2.04183 3.42857 3.12283 3.42857 4.25C3.42857 5.37717 3.9102 6.45817 4.76751 7.2552C5.62482 8.05223 6.78758 8.5 8 8.5ZM6.36786 10.0938C2.85 10.0938 0 12.7434 0 16.0139C0 16.5584 0.475 17 1.06071 17H14.9393C15.525 17 16 16.5584 16 16.0139C16 12.7434 13.15 10.0938 9.63214 10.0938H6.36786Z" fill="#FF5C00"/>
</g>
<defs>
<clipPath id="clip0_63_4418">
<rect width="16" height="17" fill="white"/>
</clipPath>
</defs>
</svg>
