<svg width="153" height="153" viewBox="0 0 153 153" fill="none" xmlns="http://www.w3.org/2000/svg">
<circle cx="76.5" cy="76.5" r="76.5" fill="#EEEEEE"/>
<path d="M35.9999 126.001L115 126.001C118.314 126.001 121 123.315 121 120.001L121 49.0015C121 45.6878 118.314 43.0015 115 43.0015L98.0157 43.0015C95.2279 43.0015 92.8614 41.0448 91.6872 38.5163C89.084 32.911 83.8297 27.0015 75.4999 27.0015C67.3374 27.0015 62.5624 32.6759 60.2765 38.1781C59.1584 40.8693 56.7276 43.0015 53.8135 43.0015L35.9999 43.0015C32.6862 43.0015 29.9999 45.6878 29.9999 49.0015L29.9999 63.675C29.9999 67.1135 32.9209 69.8077 36.2909 70.4908C42.3047 71.71 48.8657 75.3344 48.8657 84.0015C48.8657 92.6686 42.3047 96.293 36.2909 97.5121C32.9209 98.1953 29.9999 100.889 29.9999 104.328L29.9999 120.001C29.9999 123.315 32.6862 126.001 35.9999 126.001Z" fill="#72C2E9" stroke="black" stroke-width="5"/>
<path d="M112 51.7852C107 51.7852 110.905 51.7852 107 51.7852M39.9998 51.7857L56.8801 51.7856C61.5318 51.7856 65.7658 49.1011 67.7498 44.8938L69.3441 41.5129C70.3549 39.3695 72.5119 38.0019 74.8817 38.0019V38.0019C77.6152 38.0019 80.0176 39.814 80.7685 42.4423L82.0748 47.0142C82.3543 47.9926 82.8571 48.8929 83.5434 49.6442V49.6442C84.7898 51.0085 86.5525 51.7856 88.4005 51.7856L95.4998 51.7856" stroke="white" stroke-width="5" stroke-linecap="round" stroke-linejoin="round"/>
<path d="M39.9999 52.5015L39.9999 62.0015" stroke="white" stroke-width="5" stroke-linecap="round" stroke-linejoin="round"/>
</svg>
