<svg width="153" height="153" viewBox="0 0 153 153" fill="none" xmlns="http://www.w3.org/2000/svg">
<circle cx="76.5" cy="76.5" r="76.5" fill="#EEEEEE"/>
<path d="M33 37L33 116C33 119.314 35.6863 122 39 122L110 122C113.314 122 116 119.314 116 116L116 99.0159C116 96.228 117.957 93.8615 120.485 92.6873C126.09 90.0842 132 84.8299 132 76.5C132 68.3375 126.326 63.5625 120.823 61.2766C118.132 60.1586 116 57.7278 116 54.8136L116 37C116 33.6863 113.314 31 110 31L95.3265 31C91.888 31 89.1938 33.921 88.5106 37.291C87.2915 43.3049 83.6671 49.8659 75 49.8659C66.3329 49.8659 62.7085 43.3049 61.4894 37.291C60.8062 33.921 58.112 31 54.6735 31L39 31C35.6863 31 33 33.6863 33 37Z" fill="#13BF6D" stroke="black" stroke-width="5"/>
<path d="M107.216 113C107.216 108 107.216 111.905 107.216 108M107.216 41L107.216 57.8802C107.216 62.5319 109.9 66.7659 114.108 68.75L117.489 70.3443C119.632 71.355 121 73.512 121 75.8818V75.8818C121 78.6154 119.188 81.0177 116.559 81.7687L111.987 83.0749C111.009 83.3545 110.109 83.8572 109.357 84.5435V84.5435C107.993 85.7899 107.216 87.5527 107.216 89.4006L107.216 96.5" stroke="white" stroke-width="5" stroke-linecap="round" stroke-linejoin="round"/>
<path d="M106.5 41L97 41" stroke="white" stroke-width="5" stroke-linecap="round" stroke-linejoin="round"/>
</svg>
