<svg width="37" height="41" viewBox="0 0 37 41" fill="none" xmlns="http://www.w3.org/2000/svg">
<path d="M7.92857 10.25C7.92857 12.9685 9.04234 15.5756 11.0249 17.4978C13.0074 19.4201 15.6963 20.5 18.5 20.5C21.3037 20.5 23.9926 19.4201 25.9751 17.4978C27.9577 15.5756 29.0714 12.9685 29.0714 10.25C29.0714 7.53153 27.9577 4.9244 25.9751 3.00216C23.9926 1.07991 21.3037 0 18.5 0C15.6963 0 13.0074 1.07991 11.0249 3.00216C9.04234 4.9244 7.92857 7.53153 7.92857 10.25ZM15.7333 26.2816L17.2694 28.7641L14.5192 38.6857L11.546 26.9223C11.3808 26.2736 10.7366 25.8492 10.0676 26.0174C4.28638 27.4187 0 32.4957 0 38.5416C0 39.9029 1.13973 41 2.53549 41H13.4125C13.4125 41 13.4125 41 13.4208 41H13.875H23.125H23.5792C23.5792 41 23.5792 41 23.5875 41H34.4645C35.8685 41 37 39.8949 37 38.5416C37 32.4957 32.7136 27.4187 26.9324 26.0174C26.2634 25.8572 25.6192 26.2816 25.454 26.9223L22.4808 38.6857L19.7306 28.7641L21.2667 26.2816C21.7953 25.4248 21.1594 24.3438 20.1353 24.3438H18.5H16.873C15.8489 24.3438 15.2129 25.4328 15.7415 26.2816H15.7333Z" fill="white"/>
</svg>
