<svg width="16" height="14" viewBox="0 0 16 14" fill="none" xmlns="http://www.w3.org/2000/svg">
<path d="M15.8418 2.03584C15.252 2.29771 14.6198 2.47353 13.9551 2.55334C14.6335 2.14682 15.1547 1.50338 15.3991 0.737737C14.7657 1.11308 14.0611 1.38617 13.3142 1.53331C12.7156 0.894857 11.8627 0.49707 10.9187 0.49707C9.10561 0.49707 7.63542 1.96601 7.63542 3.77912C7.63542 4.036 7.66535 4.28664 7.72146 4.52731C4.99307 4.39014 2.57518 3.08331 0.95535 1.09687C0.672286 1.58319 0.511425 2.14682 0.511425 2.74787C0.511425 3.88636 1.09002 4.89143 1.97164 5.48125C1.43294 5.46379 0.926669 5.3154 0.483992 5.06975C0.483992 5.08346 0.483992 5.09718 0.483992 5.1109C0.483992 6.70204 1.61625 8.02758 3.11637 8.3306C2.84203 8.40542 2.55148 8.44532 2.25221 8.44532C2.04022 8.44532 1.83447 8.42537 1.63371 8.38547C2.05269 9.68856 3.26476 10.64 4.70003 10.6662C3.57775 11.5466 2.16243 12.0703 0.623653 12.0703C0.358047 12.0703 0.0974279 12.0553 -0.158203 12.0242C1.29328 12.9569 3.0191 13.4993 4.87336 13.4993C10.9112 13.4993 14.2132 8.49769 14.2132 4.1607C14.2132 4.01854 14.2095 3.87514 14.2045 3.73548C14.8455 3.27285 15.4016 2.69425 15.8418 2.03584Z" fill="white"/>
</svg>
