<svg width="31" height="42" viewBox="0 0 31 42" fill="none" xmlns="http://www.w3.org/2000/svg">
<path d="M27.125 0C29.2643 0 31 1.76367 31 3.9375V38.0625C31 40.2363 29.2643 42 27.125 42H19.375V35.4375C19.375 33.2637 17.6393 31.5 15.5 31.5C13.3607 31.5 11.625 33.2637 11.625 35.4375V42H3.875C1.73568 42 1.90735e-06 40.2363 1.90735e-06 38.0625V3.9375C1.90735e-06 1.76367 1.73568 0 3.875 0H27.125ZM25.8333 19.6875C25.8333 18.9656 25.2521 18.375 24.5417 18.375H21.9583C21.2479 18.375 20.6667 18.9656 20.6667 19.6875V22.3125C20.6667 23.0344 21.2479 23.625 21.9583 23.625H24.5417C25.2521 23.625 25.8333 23.0344 25.8333 22.3125V19.6875ZM16.7917 18.375H14.2083C13.4979 18.375 12.9167 18.9656 12.9167 19.6875V22.3125C12.9167 23.0344 13.4979 23.625 14.2083 23.625H16.7917C17.5021 23.625 18.0833 23.0344 18.0833 22.3125V19.6875C18.0833 18.9656 17.5021 18.375 16.7917 18.375ZM10.3333 19.6875C10.3333 18.9656 9.75208 18.375 9.04167 18.375H6.45833C5.74792 18.375 5.16667 18.9656 5.16667 19.6875V22.3125C5.16667 23.0344 5.74792 23.625 6.45833 23.625H9.04167C9.75208 23.625 10.3333 23.0344 10.3333 22.3125V19.6875ZM24.5417 7.875H21.9583C21.2479 7.875 20.6667 8.46562 20.6667 9.1875V11.8125C20.6667 12.5344 21.2479 13.125 21.9583 13.125H24.5417C25.2521 13.125 25.8333 12.5344 25.8333 11.8125V9.1875C25.8333 8.46562 25.2521 7.875 24.5417 7.875ZM18.0833 9.1875C18.0833 8.46562 17.5021 7.875 16.7917 7.875H14.2083C13.4979 7.875 12.9167 8.46562 12.9167 9.1875V11.8125C12.9167 12.5344 13.4979 13.125 14.2083 13.125H16.7917C17.5021 13.125 18.0833 12.5344 18.0833 11.8125V9.1875ZM9.04167 7.875H6.45833C5.74792 7.875 5.16667 8.46562 5.16667 9.1875V11.8125C5.16667 12.5344 5.74792 13.125 6.45833 13.125H9.04167C9.75208 13.125 10.3333 12.5344 10.3333 11.8125V9.1875C10.3333 8.46562 9.75208 7.875 9.04167 7.875Z" fill="white"/>
</svg>
