<svg width="106" height="93" viewBox="0 0 106 93" fill="none" xmlns="http://www.w3.org/2000/svg">
<path d="M18.1998 0.00012207C14.9917 0.00012207 12.3998 2.59758 12.3998 5.81262V40.6876H29.7998V34.8751C29.7998 28.4632 35.0017 23.2501 41.3998 23.2501H81.9998V5.81262C81.9998 2.59758 79.4079 0.00012207 76.1998 0.00012207H18.1998ZM41.3998 29.0626C38.1917 29.0626 35.5998 31.6601 35.5998 34.8751V40.6876H52.9998C59.3979 40.6876 64.5998 45.9007 64.5998 52.3126V75.5626H99.3998C102.608 75.5626 105.2 72.9652 105.2 69.7501V34.8751C105.2 31.6601 102.608 29.0626 99.3998 29.0626H41.3998ZM84.8998 40.6876H90.6998C92.2948 40.6876 93.5998 41.9954 93.5998 43.5939V49.4064C93.5998 51.0048 92.2948 52.3126 90.6998 52.3126H84.8998C83.3048 52.3126 81.9998 51.0048 81.9998 49.4064V43.5939C81.9998 41.9954 83.3048 40.6876 84.8998 40.6876ZM6.5998 46.5001C3.39168 46.5001 0.799805 49.0976 0.799805 52.3126V54.674L28.9117 75.5445C29.1654 75.7261 29.4736 75.8351 29.7998 75.8351C30.1261 75.8351 30.4342 75.7261 30.6879 75.5445L58.7998 54.674V52.3126C58.7998 49.0976 56.2079 46.5001 52.9998 46.5001H6.5998ZM58.7998 61.9032L34.1498 80.2126C32.8992 81.139 31.3767 81.6476 29.7998 81.6476C28.2229 81.6476 26.7186 81.139 25.4498 80.2126L0.799805 61.9032V87.1876C0.799805 90.4027 3.39168 93.0001 6.5998 93.0001H52.9998C56.2079 93.0001 58.7998 90.4027 58.7998 87.1876V61.9032Z" fill="white"/>
</svg>
