<svg width="18" height="14" viewBox="0 0 18 14" fill="none" xmlns="http://www.w3.org/2000/svg">
<path d="M16.3125 0.116577C17.2441 0.116577 18 0.866769 18 1.79142C18 2.3183 17.7504 2.81378 17.325 3.1313L9.675 8.82578C9.27422 9.12237 8.72578 9.12237 8.325 8.82578L0.675001 3.1313C0.249609 2.81378 0 2.3183 0 1.79142C0 0.866769 0.755859 0.116577 1.6875 0.116577H16.3125ZM18 4.02455V11.2822C18 12.5139 16.991 13.5154 15.75 13.5154H2.25C1.00898 13.5154 0 12.5139 0 11.2822V4.02455L7.65 9.71903C8.45156 10.3157 9.54844 10.3157 10.35 9.71903L18 4.02455Z" fill="#FF5C00"/>
</svg>
