<svg width="48" height="44" viewBox="0 0 48 44" fill="none" xmlns="http://www.w3.org/2000/svg">
<path d="M46.5346 8.92007L41.5606 1.12554C41.1179 0.429443 40.328 -0.000244141 39.486 -0.000244141H8.51375C7.67174 -0.000244141 6.88181 0.429443 6.4391 1.12554L1.45646 8.92007C-1.11299 12.9419 1.16132 18.5365 5.96167 19.181C6.30889 19.224 6.66479 19.2498 7.01202 19.2498C9.27764 19.2498 11.2915 18.2701 12.6717 16.7576C14.0519 18.2701 16.0658 19.2498 18.3315 19.2498C20.5971 19.2498 22.611 18.2701 23.9912 16.7576C25.3714 18.2701 27.3853 19.2498 29.6509 19.2498C31.9252 19.2498 33.9304 18.2701 35.3106 16.7576C36.6995 18.2701 38.7047 19.2498 40.9704 19.2498C41.3263 19.2498 41.6735 19.224 42.0207 19.181C46.8384 18.5451 49.1214 12.9505 46.5433 8.92007H46.5346ZM42.3766 21.9052C42.3766 21.9052 42.3766 21.9052 42.3679 21.9052C41.9079 21.9654 41.4391 21.9998 40.9617 21.9998C39.8853 21.9998 38.8523 21.8365 37.8888 21.5443V32.9998H10.111V21.5357C9.13875 21.8365 8.09708 21.9998 7.0207 21.9998C6.54327 21.9998 6.06583 21.9654 5.60577 21.9052H5.59708C5.24118 21.8537 4.89396 21.7935 4.55542 21.7076V32.9998V38.4998C4.55542 41.5333 7.04674 43.9998 10.111 43.9998H37.8888C40.953 43.9998 43.4443 41.5333 43.4443 38.4998V32.9998V21.7076C43.0971 21.7935 42.7499 21.8623 42.3766 21.9052Z" fill="white"/>
</svg>
