<svg width="567" height="399" viewBox="0 0 567 399" fill="none" xmlns="http://www.w3.org/2000/svg">
<g filter="url(#filter0_d_121_2545)">
<rect x="58" y="54" width="451" height="283" rx="20" fill="#F9F8FE"/>
<rect x="58.5" y="54.5" width="450" height="282" rx="19.5" stroke="#F0F0F0"/>
<rect x="148.685" y="149" width="167.315" height="10.403" fill="#DBE5FA"/>
<rect x="148.685" y="167.205" width="152.578" height="10.403" fill="#DBE5FA"/>
<rect x="148.685" y="184.543" width="135.239" height="11.2699" fill="#DBE5FA"/>
<rect x="148.685" y="202.749" width="119.635" height="10.403" fill="#DBE5FA"/>
<rect x="148" y="235" width="168" height="10" fill="#DBE5FA"/>
<rect x="148" y="252" width="153" height="11" fill="#DBE5FA"/>
<rect x="148" y="270" width="136" height="11" fill="#DBE5FA"/>
<rect x="148" y="288" width="120" height="11" fill="#DBE5FA"/>
<rect x="88" y="149" width="44" height="64" rx="2" fill="#58BB5E"/>
<rect x="88" y="238" width="44" height="64" rx="2" fill="#54BD90"/>
<ellipse cx="106.5" cy="106" rx="18.5" ry="18" transform="rotate(180 106.5 106)" fill="#54BD95"/>
<path d="M145.028 98.9529L136 84L175 90.9294L143.222 115L145.028 98.9529Z" fill="#5BBA3F" stroke="white" stroke-width="2"/>
<rect x="197" y="65" width="267" height="45" rx="18" fill="url(#paint0_linear_121_2545)"/>
<path d="M231.742 94.4267L228.042 90.7273C227.875 90.5603 227.648 90.4675 227.411 90.4675H226.806C227.83 89.1577 228.439 87.5102 228.439 85.718C228.439 81.4545 224.983 78 220.719 78C216.455 78 213 81.4545 213 85.718C213 89.9814 216.455 93.436 220.719 93.436C222.512 93.436 224.16 92.8275 225.47 91.8033V92.4082C225.47 92.6456 225.562 92.872 225.729 93.039L229.43 96.7384C229.778 97.0872 230.342 97.0872 230.688 96.7384L231.738 95.6883C232.087 95.3395 232.087 94.7755 231.742 94.4267ZM220.719 90.4675C218.095 90.4675 215.969 88.3451 215.969 85.718C215.969 83.0946 218.092 80.9685 220.719 80.9685C223.343 80.9685 225.47 83.0909 225.47 85.718C225.47 88.3414 223.347 90.4675 220.719 90.4675Z" fill="white"/>
<path d="M270.49 79.996C271.315 80.26 271.876 80.909 271.876 81.91C271.876 83.23 270.842 84 268.862 84H265.034V76.3H268.642C270.49 76.3 271.48 77.081 271.48 78.302C271.48 79.094 271.084 79.677 270.49 79.996ZM268.488 77.422H266.464V79.545H268.488C269.478 79.545 270.039 79.193 270.039 78.489C270.039 77.774 269.478 77.422 268.488 77.422ZM268.774 82.878C269.852 82.878 270.435 82.537 270.435 81.767C270.435 80.997 269.852 80.656 268.774 80.656H266.464V82.878H268.774ZM277.582 78.126H278.957V84H277.648V83.252C277.208 83.791 276.515 84.077 275.756 84.077C274.249 84.077 273.226 83.252 273.226 81.481V78.126H274.601V81.294C274.601 82.361 275.107 82.867 275.976 82.867C276.933 82.867 277.582 82.273 277.582 81.096V78.126ZM282.572 84.077C281.593 84.077 280.614 83.791 280.086 83.417L280.614 82.372C281.131 82.713 281.923 82.955 282.66 82.955C283.529 82.955 283.892 82.713 283.892 82.306C283.892 81.184 280.262 82.24 280.262 79.897C280.262 78.786 281.263 78.06 282.847 78.06C283.628 78.06 284.519 78.247 285.047 78.566L284.519 79.611C283.958 79.281 283.397 79.171 282.836 79.171C282 79.171 281.604 79.446 281.604 79.831C281.604 81.019 285.234 79.963 285.234 82.262C285.234 83.362 284.222 84.077 282.572 84.077ZM290.852 78.126H292.161V86.134H290.786V83.285C290.313 83.824 289.653 84.077 288.905 84.077C287.189 84.077 285.935 82.889 285.935 81.063C285.935 79.248 287.189 78.06 288.905 78.06C289.708 78.06 290.39 78.335 290.852 78.896V78.126ZM289.059 82.9C290.06 82.9 290.808 82.185 290.808 81.063C290.808 79.941 290.06 79.226 289.059 79.226C288.069 79.226 287.321 79.941 287.321 81.063C287.321 82.185 288.069 82.9 289.059 82.9ZM298.272 78.126H299.647V84H298.338V83.252C297.898 83.791 297.205 84.077 296.446 84.077C294.939 84.077 293.916 83.252 293.916 81.481V78.126H295.291V81.294C295.291 82.361 295.797 82.867 296.666 82.867C297.623 82.867 298.272 82.273 298.272 81.096V78.126ZM306.969 81.096C306.969 81.206 306.958 81.371 306.947 81.503H302.338C302.503 82.361 303.218 82.911 304.241 82.911C304.901 82.911 305.418 82.702 305.836 82.273L306.573 83.12C306.045 83.747 305.22 84.077 304.208 84.077C302.239 84.077 300.963 82.812 300.963 81.063C300.963 79.314 302.25 78.06 303.999 78.06C305.715 78.06 306.969 79.259 306.969 81.096ZM303.999 79.16C303.108 79.16 302.459 79.732 302.327 80.59H305.66C305.55 79.743 304.901 79.16 303.999 79.16ZM315.866 78.126H317.241V84H315.932V83.252C315.492 83.791 314.799 84.077 314.04 84.077C312.533 84.077 311.51 83.252 311.51 81.481V78.126H312.885V81.294C312.885 82.361 313.391 82.867 314.26 82.867C315.217 82.867 315.866 82.273 315.866 81.096V78.126ZM322.375 78.06C323.783 78.06 324.828 78.863 324.828 80.634V84H323.453V80.81C323.453 79.765 322.936 79.259 322.056 79.259C321.077 79.259 320.417 79.853 320.417 81.03V84H319.042V78.126H320.351V78.885C320.802 78.346 321.517 78.06 322.375 78.06ZM333.093 78.06C334.809 78.06 336.074 79.248 336.074 81.063C336.074 82.889 334.809 84.077 333.093 84.077C332.345 84.077 331.685 83.824 331.212 83.285V86.134H329.837V78.126H331.146V78.896C331.608 78.335 332.29 78.06 333.093 78.06ZM332.939 82.9C333.929 82.9 334.677 82.185 334.677 81.063C334.677 79.941 333.929 79.226 332.939 79.226C331.949 79.226 331.19 79.941 331.19 81.063C331.19 82.185 331.949 82.9 332.939 82.9ZM338.687 78.984C339.083 78.368 339.798 78.06 340.777 78.06V79.369C340.656 79.347 340.557 79.336 340.458 79.336C339.413 79.336 338.753 79.952 338.753 81.151V84H337.378V78.126H338.687V78.984ZM344.529 84.077C342.725 84.077 341.405 82.823 341.405 81.063C341.405 79.303 342.725 78.06 344.529 78.06C346.355 78.06 347.664 79.303 347.664 81.063C347.664 82.823 346.355 84.077 344.529 84.077ZM344.529 82.9C345.53 82.9 346.278 82.185 346.278 81.063C346.278 79.941 345.53 79.226 344.529 79.226C343.539 79.226 342.791 79.941 342.791 81.063C342.791 82.185 343.539 82.9 344.529 82.9ZM353.357 75.838H354.732V84H353.412V83.241C352.95 83.802 352.268 84.077 351.465 84.077C349.76 84.077 348.495 82.889 348.495 81.063C348.495 79.237 349.76 78.06 351.465 78.06C352.224 78.06 352.895 78.313 353.357 78.852V75.838ZM351.63 82.9C352.62 82.9 353.379 82.185 353.379 81.063C353.379 79.941 352.62 79.226 351.63 79.226C350.64 79.226 349.881 79.941 349.881 81.063C349.881 82.185 350.64 82.9 351.63 82.9ZM360.843 78.126H362.218V84H360.909V83.252C360.469 83.791 359.776 84.077 359.017 84.077C357.51 84.077 356.487 83.252 356.487 81.481V78.126H357.862V81.294C357.862 82.361 358.368 82.867 359.237 82.867C360.194 82.867 360.843 82.273 360.843 81.096V78.126ZM366.713 84.077C364.854 84.077 363.534 82.823 363.534 81.063C363.534 79.303 364.854 78.06 366.713 78.06C367.857 78.06 368.77 78.533 369.221 79.424L368.165 80.04C367.813 79.479 367.285 79.226 366.702 79.226C365.69 79.226 364.92 79.93 364.92 81.063C364.92 82.207 365.69 82.9 366.702 82.9C367.285 82.9 367.813 82.647 368.165 82.086L369.221 82.702C368.77 83.582 367.857 84.077 366.713 84.077ZM373.631 82.702L374.016 83.681C373.686 83.945 373.191 84.077 372.696 84.077C371.409 84.077 370.672 83.395 370.672 82.097V79.27H369.704V78.17H370.672V76.828H372.047V78.17H373.62V79.27H372.047V82.064C372.047 82.636 372.333 82.944 372.861 82.944C373.147 82.944 373.422 82.867 373.631 82.702ZM377.594 84.077C375.79 84.077 374.47 82.823 374.47 81.063C374.47 79.303 375.79 78.06 377.594 78.06C379.42 78.06 380.729 79.303 380.729 81.063C380.729 82.823 379.42 84.077 377.594 84.077ZM377.594 82.9C378.595 82.9 379.343 82.185 379.343 81.063C379.343 79.941 378.595 79.226 377.594 79.226C376.604 79.226 375.856 79.941 375.856 81.063C375.856 82.185 376.604 82.9 377.594 82.9ZM382.387 82.251C382.904 82.251 383.278 82.625 383.278 83.164C383.278 83.406 383.223 83.604 383.025 84.11L382.464 85.661H381.573L382.013 83.978C381.705 83.846 381.496 83.56 381.496 83.164C381.496 82.614 381.881 82.251 382.387 82.251ZM393.408 81.096C393.408 81.206 393.397 81.371 393.386 81.503H388.777C388.942 82.361 389.657 82.911 390.68 82.911C391.34 82.911 391.857 82.702 392.275 82.273L393.012 83.12C392.484 83.747 391.659 84.077 390.647 84.077C388.678 84.077 387.402 82.812 387.402 81.063C387.402 79.314 388.689 78.06 390.438 78.06C392.154 78.06 393.408 79.259 393.408 81.096ZM390.438 79.16C389.547 79.16 388.898 79.732 388.766 80.59H392.099C391.989 79.743 391.34 79.16 390.438 79.16ZM402.143 78.06C403.562 78.06 404.552 78.863 404.552 80.634V84H403.177V80.81C403.177 79.765 402.693 79.259 401.857 79.259C400.955 79.259 400.328 79.853 400.328 81.019V84H398.953V80.81C398.953 79.765 398.469 79.259 397.633 79.259C396.72 79.259 396.104 79.853 396.104 81.019V84H394.729V78.126H396.038V78.874C396.478 78.346 397.16 78.06 397.963 78.06C398.821 78.06 399.536 78.379 399.943 79.039C400.416 78.434 401.208 78.06 402.143 78.06ZM409.565 78.06C411.281 78.06 412.546 79.248 412.546 81.063C412.546 82.889 411.281 84.077 409.565 84.077C408.817 84.077 408.157 83.824 407.684 83.285V86.134H406.309V78.126H407.618V78.896C408.08 78.335 408.762 78.06 409.565 78.06ZM409.411 82.9C410.401 82.9 411.149 82.185 411.149 81.063C411.149 79.941 410.401 79.226 409.411 79.226C408.421 79.226 407.662 79.941 407.662 81.063C407.662 82.185 408.421 82.9 409.411 82.9ZM415.159 78.984C415.555 78.368 416.27 78.06 417.249 78.06V79.369C417.128 79.347 417.029 79.336 416.93 79.336C415.885 79.336 415.225 79.952 415.225 81.151V84H413.85V78.126H415.159V78.984ZM423.884 81.096C423.884 81.206 423.873 81.371 423.862 81.503H419.253C419.418 82.361 420.133 82.911 421.156 82.911C421.816 82.911 422.333 82.702 422.751 82.273L423.488 83.12C422.96 83.747 422.135 84.077 421.123 84.077C419.154 84.077 417.878 82.812 417.878 81.063C417.878 79.314 419.165 78.06 420.914 78.06C422.63 78.06 423.884 79.259 423.884 81.096ZM420.914 79.16C420.023 79.16 419.374 79.732 419.242 80.59H422.575C422.465 79.743 421.816 79.16 420.914 79.16ZM427.02 84.077C426.041 84.077 425.062 83.791 424.534 83.417L425.062 82.372C425.579 82.713 426.371 82.955 427.108 82.955C427.977 82.955 428.34 82.713 428.34 82.306C428.34 81.184 424.71 82.24 424.71 79.897C424.71 78.786 425.711 78.06 427.295 78.06C428.076 78.06 428.967 78.247 429.495 78.566L428.967 79.611C428.406 79.281 427.845 79.171 427.284 79.171C426.448 79.171 426.052 79.446 426.052 79.831C426.052 81.019 429.682 79.963 429.682 82.262C429.682 83.362 428.67 84.077 427.02 84.077ZM433.11 78.06C434.804 78.06 435.783 78.863 435.783 80.557V84H434.485V83.285C434.155 83.791 433.517 84.077 432.637 84.077C431.295 84.077 430.448 83.34 430.448 82.317C430.448 81.338 431.108 80.568 432.89 80.568H434.408V80.48C434.408 79.677 433.924 79.204 432.945 79.204C432.285 79.204 431.603 79.424 431.163 79.787L430.624 78.786C431.251 78.302 432.164 78.06 433.11 78.06ZM432.923 83.076C433.594 83.076 434.177 82.768 434.408 82.163V81.481H432.989C432.054 81.481 431.801 81.833 431.801 82.262C431.801 82.757 432.219 83.076 432.923 83.076ZM443.452 84.077C441.648 84.077 440.328 82.823 440.328 81.063C440.328 79.303 441.648 78.06 443.452 78.06C445.278 78.06 446.587 79.303 446.587 81.063C446.587 82.823 445.278 84.077 443.452 84.077ZM443.452 82.9C444.453 82.9 445.201 82.185 445.201 81.063C445.201 79.941 444.453 79.226 443.452 79.226C442.462 79.226 441.714 79.941 441.714 81.063C441.714 82.185 442.462 82.9 443.452 82.9ZM268.158 91.06C269.874 91.06 271.139 92.248 271.139 94.063C271.139 95.889 269.874 97.077 268.158 97.077C267.41 97.077 266.75 96.824 266.277 96.285V99.134H264.902V91.126H266.211V91.896C266.673 91.335 267.355 91.06 268.158 91.06ZM268.004 95.9C268.994 95.9 269.742 95.185 269.742 94.063C269.742 92.941 268.994 92.226 268.004 92.226C267.014 92.226 266.255 92.941 266.255 94.063C266.255 95.185 267.014 95.9 268.004 95.9ZM275.083 97.077C273.279 97.077 271.959 95.823 271.959 94.063C271.959 92.303 273.279 91.06 275.083 91.06C276.909 91.06 278.218 92.303 278.218 94.063C278.218 95.823 276.909 97.077 275.083 97.077ZM275.083 95.9C276.084 95.9 276.832 95.185 276.832 94.063C276.832 92.941 276.084 92.226 275.083 92.226C274.093 92.226 273.345 92.941 273.345 94.063C273.345 95.185 274.093 95.9 275.083 95.9ZM281.348 97.077C280.369 97.077 279.39 96.791 278.862 96.417L279.39 95.372C279.907 95.713 280.699 95.955 281.436 95.955C282.305 95.955 282.668 95.713 282.668 95.306C282.668 94.184 279.038 95.24 279.038 92.897C279.038 91.786 280.039 91.06 281.623 91.06C282.404 91.06 283.295 91.247 283.823 91.566L283.295 92.611C282.734 92.281 282.173 92.171 281.612 92.171C280.776 92.171 280.38 92.446 280.38 92.831C280.38 94.019 284.01 92.963 284.01 95.262C284.01 96.362 282.998 97.077 281.348 97.077ZM285.887 90.158C285.381 90.158 285.007 89.795 285.007 89.333C285.007 88.871 285.381 88.508 285.887 88.508C286.393 88.508 286.767 88.849 286.767 89.3C286.767 89.784 286.404 90.158 285.887 90.158ZM285.194 97V91.126H286.569V97H285.194ZM291.069 97.077C289.21 97.077 287.89 95.823 287.89 94.063C287.89 92.303 289.21 91.06 291.069 91.06C292.213 91.06 293.126 91.533 293.577 92.424L292.521 93.04C292.169 92.479 291.641 92.226 291.058 92.226C290.046 92.226 289.276 92.93 289.276 94.063C289.276 95.207 290.046 95.9 291.058 95.9C291.641 95.9 292.169 95.647 292.521 95.086L293.577 95.702C293.126 96.582 292.213 97.077 291.069 97.077ZM295.458 90.158C294.952 90.158 294.578 89.795 294.578 89.333C294.578 88.871 294.952 88.508 295.458 88.508C295.964 88.508 296.338 88.849 296.338 89.3C296.338 89.784 295.975 90.158 295.458 90.158ZM294.765 97V91.126H296.14V97H294.765ZM299.65 90.323L301.135 88.816H302.752L300.838 90.323H299.65ZM300.585 97.077C298.781 97.077 297.461 95.823 297.461 94.063C297.461 92.303 298.781 91.06 300.585 91.06C302.411 91.06 303.72 92.303 303.72 94.063C303.72 95.823 302.411 97.077 300.585 97.077ZM300.585 95.9C301.586 95.9 302.334 95.185 302.334 94.063C302.334 92.941 301.586 92.226 300.585 92.226C299.595 92.226 298.847 92.941 298.847 94.063C298.847 95.185 299.595 95.9 300.585 95.9ZM308.368 91.06C309.776 91.06 310.821 91.863 310.821 93.634V97H309.446V93.81C309.446 92.765 308.929 92.259 308.049 92.259C307.07 92.259 306.41 92.853 306.41 94.03V97H305.035V91.126H306.344V91.885C306.795 91.346 307.51 91.06 308.368 91.06ZM317.849 91.06C319.543 91.06 320.522 91.863 320.522 93.557V97H319.224V96.285C318.894 96.791 318.256 97.077 317.376 97.077C316.034 97.077 315.187 96.34 315.187 95.317C315.187 94.338 315.847 93.568 317.629 93.568H319.147V93.48C319.147 92.677 318.663 92.204 317.684 92.204C317.024 92.204 316.342 92.424 315.902 92.787L315.363 91.786C315.99 91.302 316.903 91.06 317.849 91.06ZM317.662 96.076C318.333 96.076 318.916 95.768 319.147 95.163V94.481H317.728C316.793 94.481 316.54 94.833 316.54 95.262C316.54 95.757 316.958 96.076 317.662 96.076ZM323.596 91.984C323.992 91.368 324.707 91.06 325.686 91.06V92.369C325.565 92.347 325.466 92.336 325.367 92.336C324.322 92.336 323.662 92.952 323.662 94.151V97H322.287V91.126H323.596V91.984ZM329.064 91.06C330.758 91.06 331.737 91.863 331.737 93.557V97H330.439V96.285C330.109 96.791 329.471 97.077 328.591 97.077C327.249 97.077 326.402 96.34 326.402 95.317C326.402 94.338 327.062 93.568 328.844 93.568H330.362V93.48C330.362 92.677 329.878 92.204 328.899 92.204C328.239 92.204 327.557 92.424 327.117 92.787L326.578 91.786C327.205 91.302 328.118 91.06 329.064 91.06ZM328.877 96.076C329.548 96.076 330.131 95.768 330.362 95.163V94.481H328.943C328.008 94.481 327.755 94.833 327.755 95.262C327.755 95.757 328.173 96.076 328.877 96.076ZM336.835 91.06C338.243 91.06 339.288 91.863 339.288 93.634V97H337.913V93.81C337.913 92.765 337.396 92.259 336.516 92.259C335.537 92.259 334.877 92.853 334.877 94.03V97H333.502V91.126H334.811V91.885C335.262 91.346 335.977 91.06 336.835 91.06ZM343.781 97.077C341.922 97.077 340.602 95.823 340.602 94.063C340.602 92.303 341.922 91.06 343.781 91.06C344.925 91.06 345.838 91.533 346.289 92.424L345.233 93.04C344.881 92.479 344.353 92.226 343.77 92.226C342.758 92.226 341.988 92.93 341.988 94.063C341.988 95.207 342.758 95.9 343.77 95.9C344.353 95.9 344.881 95.647 345.233 95.086L346.289 95.702C345.838 96.582 344.925 97.077 343.781 97.077ZM352.913 94.096C352.913 94.206 352.902 94.371 352.891 94.503H348.282C348.447 95.361 349.162 95.911 350.185 95.911C350.845 95.911 351.362 95.702 351.78 95.273L352.517 96.12C351.989 96.747 351.164 97.077 350.152 97.077C348.183 97.077 346.907 95.812 346.907 94.063C346.907 92.314 348.194 91.06 349.943 91.06C351.659 91.06 352.913 92.259 352.913 94.096ZM349.943 92.16C349.052 92.16 348.403 92.732 348.271 93.59H351.604C351.494 92.743 350.845 92.16 349.943 92.16ZM354.234 97V88.838H355.609V97H354.234ZM359.658 91.06C361.352 91.06 362.331 91.863 362.331 93.557V97H361.033V96.285C360.703 96.791 360.065 97.077 359.185 97.077C357.843 97.077 356.996 96.34 356.996 95.317C356.996 94.338 357.656 93.568 359.438 93.568H360.956V93.48C360.956 92.677 360.472 92.204 359.493 92.204C358.833 92.204 358.151 92.424 357.711 92.787L357.172 91.786C357.799 91.302 358.712 91.06 359.658 91.06ZM359.471 96.076C360.142 96.076 360.725 95.768 360.956 95.163V94.481H359.537C358.602 94.481 358.349 94.833 358.349 95.262C358.349 95.757 358.767 96.076 359.471 96.076ZM365.404 91.984C365.8 91.368 366.515 91.06 367.494 91.06V92.369C367.373 92.347 367.274 92.336 367.175 92.336C366.13 92.336 365.47 92.952 365.47 94.151V97H364.095V91.126H365.404V91.984ZM369.354 90.158C368.848 90.158 368.474 89.795 368.474 89.333C368.474 88.871 368.848 88.508 369.354 88.508C369.86 88.508 370.234 88.849 370.234 89.3C370.234 89.784 369.871 90.158 369.354 90.158ZM368.661 97V91.126H370.036V97H368.661ZM374.084 91.06C375.778 91.06 376.757 91.863 376.757 93.557V97H375.459V96.285C375.129 96.791 374.491 97.077 373.611 97.077C372.269 97.077 371.422 96.34 371.422 95.317C371.422 94.338 372.082 93.568 373.864 93.568H375.382V93.48C375.382 92.677 374.898 92.204 373.919 92.204C373.259 92.204 372.577 92.424 372.137 92.787L371.598 91.786C372.225 91.302 373.138 91.06 374.084 91.06ZM373.897 96.076C374.568 96.076 375.151 95.768 375.382 95.163V94.481H373.963C373.028 94.481 372.775 94.833 372.775 95.262C372.775 95.757 373.193 96.076 373.897 96.076ZM387.084 94.096C387.084 94.206 387.073 94.371 387.062 94.503H382.453C382.618 95.361 383.333 95.911 384.356 95.911C385.016 95.911 385.533 95.702 385.951 95.273L386.688 96.12C386.16 96.747 385.335 97.077 384.323 97.077C382.354 97.077 381.078 95.812 381.078 94.063C381.078 92.314 382.365 91.06 384.114 91.06C385.83 91.06 387.084 92.259 387.084 94.096ZM384.114 92.16C383.223 92.16 382.574 92.732 382.442 93.59H385.775C385.665 92.743 385.016 92.16 384.114 92.16ZM391.738 91.06C393.146 91.06 394.191 91.863 394.191 93.634V97H392.816V93.81C392.816 92.765 392.299 92.259 391.419 92.259C390.44 92.259 389.78 92.853 389.78 94.03V97H388.405V91.126H389.714V91.885C390.165 91.346 390.88 91.06 391.738 91.06ZM398.975 97V88.838H400.35V97H398.975ZM404.399 91.06C406.093 91.06 407.072 91.863 407.072 93.557V97H405.774V96.285C405.444 96.791 404.806 97.077 403.926 97.077C402.584 97.077 401.737 96.34 401.737 95.317C401.737 94.338 402.397 93.568 404.179 93.568H405.697V93.48C405.697 92.677 405.213 92.204 404.234 92.204C403.574 92.204 402.892 92.424 402.452 92.787L401.913 91.786C402.54 91.302 403.453 91.06 404.399 91.06ZM404.212 96.076C404.883 96.076 405.466 95.768 405.697 95.163V94.481H404.278C403.343 94.481 403.09 94.833 403.09 95.262C403.09 95.757 403.508 96.076 404.212 96.076ZM411.877 97V88.838H413.252V97H411.877ZM415.749 90.158C415.243 90.158 414.869 89.795 414.869 89.333C414.869 88.871 415.243 88.508 415.749 88.508C416.255 88.508 416.629 88.849 416.629 89.3C416.629 89.784 416.266 90.158 415.749 90.158ZM415.056 97V91.126H416.431V97H415.056ZM420.051 97.077C419.072 97.077 418.093 96.791 417.565 96.417L418.093 95.372C418.61 95.713 419.402 95.955 420.139 95.955C421.008 95.955 421.371 95.713 421.371 95.306C421.371 94.184 417.741 95.24 417.741 92.897C417.741 91.786 418.742 91.06 420.326 91.06C421.107 91.06 421.998 91.247 422.526 91.566L421.998 92.611C421.437 92.281 420.876 92.171 420.315 92.171C419.479 92.171 419.083 92.446 419.083 92.831C419.083 94.019 422.713 92.963 422.713 95.262C422.713 96.362 421.701 97.077 420.051 97.077ZM427.043 95.702L427.428 96.681C427.098 96.945 426.603 97.077 426.108 97.077C424.821 97.077 424.084 96.395 424.084 95.097V92.27H423.116V91.17H424.084V89.828H425.459V91.17H427.032V92.27H425.459V95.064C425.459 95.636 425.745 95.944 426.273 95.944C426.559 95.944 426.834 95.867 427.043 95.702ZM430.803 91.06C432.497 91.06 433.476 91.863 433.476 93.557V97H432.178V96.285C431.848 96.791 431.21 97.077 430.33 97.077C428.988 97.077 428.141 96.34 428.141 95.317C428.141 94.338 428.801 93.568 430.583 93.568H432.101V93.48C432.101 92.677 431.617 92.204 430.638 92.204C429.978 92.204 429.296 92.424 428.856 92.787L428.317 91.786C428.944 91.302 429.857 91.06 430.803 91.06ZM430.616 96.076C431.287 96.076 431.87 95.768 432.101 95.163V94.481H430.682C429.747 94.481 429.494 94.833 429.494 95.262C429.494 95.757 429.912 96.076 430.616 96.076Z" fill="white"/>
<line x1="248.5" y1="104" x2="248.5" y2="72" stroke="white" stroke-width="3"/>
</g>
<defs>
<filter id="filter0_d_121_2545" x="0.599998" y="0.599998" width="565.8" height="397.8" filterUnits="userSpaceOnUse" color-interpolation-filters="sRGB">
<feFlood flood-opacity="0" result="BackgroundImageFix"/>
<feColorMatrix in="SourceAlpha" type="matrix" values="0 0 0 0 0 0 0 0 0 0 0 0 0 0 0 0 0 0 127 0" result="hardAlpha"/>
<feOffset dy="4"/>
<feGaussianBlur stdDeviation="28.7"/>
<feComposite in2="hardAlpha" operator="out"/>
<feColorMatrix type="matrix" values="0 0 0 0 0.360577 0 0 0 0 0.360577 0 0 0 0 0.360577 0 0 0 0.25 0"/>
<feBlend mode="normal" in2="BackgroundImageFix" result="effect1_dropShadow_121_2545"/>
<feBlend mode="normal" in="SourceGraphic" in2="effect1_dropShadow_121_2545" result="shape"/>
</filter>
<linearGradient id="paint0_linear_121_2545" x1="394.615" y1="110.562" x2="380.878" y2="45.8317" gradientUnits="userSpaceOnUse">
<stop stop-color="#54BD95"/>
<stop offset="1" stop-color="#5CB930"/>
</linearGradient>
</defs>
</svg>
