<svg width="17" height="21" viewBox="0 0 17 21" fill="none" xmlns="http://www.w3.org/2000/svg">
<g clip-path="url(#clip0_110_1609)">
<path fill-rule="evenodd" clip-rule="evenodd" d="M8.22011 20.052C8.6153 20.052 15.6766 12.5074 15.6766 8.3893C15.6766 4.27122 12.3382 0.932861 8.22011 0.932861C4.10203 0.932861 0.763672 4.27122 0.763672 8.3893C0.763672 12.5074 7.82493 20.052 8.22011 20.052ZM8.22012 12.1188C10.308 12.1188 12.0006 10.4262 12.0006 8.33831C12.0006 6.25044 10.308 4.55789 8.22012 4.55789C6.13226 4.55789 4.43971 6.25044 4.43971 8.33831C4.43971 10.4262 6.13226 12.1188 8.22012 12.1188Z" fill="#FF5C00"/>
<path fill-rule="evenodd" clip-rule="evenodd" d="M0.763672 8.3893C0.763672 12.5074 7.82493 20.052 8.22011 20.052V12.1188C6.13225 12.1187 4.43971 10.4262 4.43971 8.33831C4.43971 6.25045 6.13225 4.5579 8.22011 4.55789V0.932861C4.10203 0.932861 0.763672 4.27122 0.763672 8.3893Z" fill="#FF5C00"/>
</g>
<defs>
<clipPath id="clip0_110_1609">
<rect width="16" height="20" fill="white" transform="translate(0.658203 0.737671)"/>
</clipPath>
</defs>
</svg>
